<svg width="48" height="48" viewBox="0 0 48 48" fill="none" xmlns="http://www.w3.org/2000/svg">
  <rect width="48" height="48" rx="13" fill="#0e0e0e"/>
  <g>
    <path d="M24 13 C28.8 20, 28.8 27, 24 32 C19.2 27, 19.2 20, 24 13 Z" fill="#ffffff" opacity="0.7" transform="rotate(64 24 32)"/>
    <path d="M24 13 C28.8 20, 28.8 27, 24 32 C19.2 27, 19.2 20, 24 13 Z" fill="#ffffff" opacity="0.7" transform="rotate(-64 24 32)"/>
    <path d="M24 12 C28.8 19, 28.8 26, 24 32 C19.2 26, 19.2 19, 24 12 Z" fill="#ffffff" opacity="0.85" transform="rotate(33 24 32)"/>
    <path d="M24 12 C28.8 19, 28.8 26, 24 32 C19.2 26, 19.2 19, 24 12 Z" fill="#ffffff" opacity="0.85" transform="rotate(-33 24 32)"/>
    <path d="M24 10 C29.4 18, 29.4 25, 24 32 C18.6 25, 18.6 18, 24 10 Z" fill="#d9b1a3"/>
  </g>
</svg>
